<?xml version="1.0" encoding="UTF-8"?>
<svg width="150px" height="94px" viewBox="0 0 150 94" version="1.1" xmlns="http://www.w3.org/2000/svg" xmlns:xlink="http://www.w3.org/1999/xlink">
    <!-- Generator: Sketch 59.1 (86144) - https://sketch.com -->
    <title>Large/Join@1.5x</title>
    <desc>Created with Sketch.</desc>
    <defs>
        <rect id="path-1" x="0.00379426644" y="0.0720766129" width="25.9274874" height="30.2419355"></rect>
        <rect id="path-3" x="0.24915683" y="0.0720766129" width="25.9274874" height="30.2419355"></rect>
        <rect id="path-5" x="-4.05009359e-13" y="0.0720766129" width="25.9274874" height="30.2419355"></rect>
    </defs>
    <g id="Style-Sheet" stroke="none" stroke-width="1" fill="none" fill-rule="evenodd">
        <g id="Styles:-Icons-&amp;-Illustrations" transform="translate(-136.000000, -664.000000)">
            <g id="Large/Join" transform="translate(136.000000, 664.000000)">
                <path d="M28.3836425,62.7860383 L27.5881113,62.2933468 C27.512226,62.2467238 27.4376054,62.1963206 27.3617201,62.1484375 C30.8489374,61.5507465 33.455499,58.6262009 33.6388195,55.1055718 C33.8221399,51.5849426 31.5333176,48.4073735 28.1268971,47.453377 L28.1661046,50.5607359 L26.4523609,47.1799395 L26.43086,47.1799395 C22.2548807,46.9868351 18.711925,50.2019521 18.5160202,54.3623992 C18.5084317,54.5073085 18.5160202,54.6484375 18.5160202,54.7908266 C17.9203204,54.1129032 17.3777403,53.3858367 17.0198145,52.5894657 C16.2951096,50.9778226 16.2811973,49.1519657 16.3381113,46.9317036 C16.4519393,42.5340222 16.6429174,38.1010585 16.8908094,33.6832157 C20.5876259,33.2731532 23.4375904,30.247846 23.6142496,26.546119 C23.6243676,26.3155242 23.6205734,26.0887097 23.6142496,25.8618952 C23.6142496,25.8051915 23.6142496,25.749748 23.6053963,25.6930444 C23.5902192,25.4737903 23.5699831,25.2570565 23.5358347,25.0428427 C23.5358347,25.0075605 23.5231872,24.9735383 23.5168634,24.9395161 C23.4865093,24.7580645 23.4485666,24.5791331 23.4055649,24.4027218 C23.3891231,24.3359375 23.3726813,24.2704133 23.3549747,24.2048891 C23.301855,24.0120968 23.2436762,23.8268649 23.1753794,23.6353327 C23.1526138,23.5735887 23.1273187,23.5093246 23.1020236,23.4513609 C23.0489039,23.3140121 22.9907251,23.1779234 22.9287521,23.0443548 C22.8958685,22.9737903 22.8642496,22.9032258 22.8301012,22.8339214 C22.8199831,22.8162802 22.8136594,22.797379 22.8035413,22.7797379 L22.8035413,22.7797379 C21.1540804,19.5360232 17.4160084,17.9271958 13.9148398,18.9541331 L13.96543,22.9989919 L12.2706577,19.6572581 C9.41294301,21.2891386 7.95050808,24.5813617 8.65978078,27.7860383 L8.64460371,27.7860383 C8.65598651,27.8402218 8.67242833,27.8918851 8.68507589,27.9448085 C8.70910624,28.0443548 8.73440135,28.1426411 8.76222597,28.2409274 C8.79890388,28.3669355 8.8381113,28.4929435 8.87984823,28.6189516 C8.91146712,28.7121976 8.94182125,28.8041835 8.9772344,28.8961694 C9.02908938,29.0297379 9.08726813,29.1595262 9.14544688,29.2893145 C9.17959528,29.3649194 9.20994941,29.4430444 9.24662732,29.5173891 C9.34274874,29.7122816 9.44730185,29.9025538 9.56028668,30.0882056 C9.5994941,30.1537298 9.64376054,30.2142137 9.68676223,30.2784778 C9.76770658,30.4044859 9.84865093,30.530494 9.93971332,30.6476815 C9.99409781,30.7220262 10.0522766,30.7938508 10.1091906,30.8656754 C10.1926644,30.9702621 10.277403,31.0735887 10.3621417,31.1731351 C10.4241147,31.2449597 10.4886172,31.3142641 10.5531197,31.3823085 C10.6467116,31.4805948 10.7415683,31.5751008 10.8402192,31.6670867 C10.9059865,31.7288306 10.9666948,31.7930948 11.0387858,31.8510585 C11.1500843,31.9506048 11.2664418,32.0438508 11.3840641,32.1358367 C11.4435076,32.1824597 11.5016863,32.2303427 11.5623946,32.2757056 C11.7419899,32.4017137 11.9266442,32.5277218 12.1176223,32.6537298 C12.1530354,32.6751512 12.1922428,32.6927923 12.227656,32.7142137 C12.3882799,32.8074597 12.5501686,32.8969254 12.7171164,32.9775706 C12.7892074,33.0128528 12.8625632,33.0443548 12.9359191,33.0771169 C13.0725126,33.1376008 13.210371,33.1968246 13.3520236,33.2510081 L13.6049747,33.3392137 C13.7440978,33.3858367 13.8857504,33.4299395 14.0286678,33.4652218 C14.1121417,33.4879032 14.1968803,33.5118448 14.2816189,33.532006 C14.4359191,33.5685484 14.5940135,33.5987903 14.7533727,33.6265121 L14.7837268,33.6328125 C14.6800169,35.4968918 14.5872681,37.3613911 14.5054806,39.2263105 C13.5937929,37.3598011 11.9499964,35.9503894 9.96162423,35.330351 C7.97325205,34.7103126 5.81625543,34.9345148 3.99915683,35.9501008 L5.33726813,39.6043347 L2.58389545,36.9707661 C1.10561378,38.3149754 0.223914448,40.1892534 0.132799325,42.1811996 C0.0976621705,42.879402 0.16239149,43.5790343 0.325042159,44.2590726 C1.03347845,47.2694298 3.51475667,49.5438007 6.58473645,49.9967873 C9.65471624,50.4497739 12.6911423,48.9895603 14.244941,46.313004 C14.244941,46.5020161 14.2322934,46.6910282 14.2272344,46.8813004 C14.1766442,48.8394657 14.1134064,51.2764617 15.0935919,53.452621 C15.7575885,54.9269153 16.8250422,56.125252 17.876054,57.1988407 C18.5628162,57.8969254 19.2748735,58.5735887 20.0046374,59.2275706 C20.723126,60.1885343 21.6602738,60.9658845 22.7390388,61.4957157 C23.938027,62.4155746 25.1800169,63.28125 26.4637437,64.0801411 L27.2655987,64.5766129 C27.9865093,65.0214214 28.7251265,65.4788306 29.4485666,65.953881 C29.3220911,65.9412802 29.1956155,65.9274194 29.06914,65.921119 C25.7756182,65.768239 22.7611453,67.7555124 21.6146712,70.8354335 L26.3448567,74.6698589 L21.1416526,73.4677419 C21.1465159,76.0611615 22.4876484,78.4704175 24.6931925,79.8478488 C26.8987366,81.2252802 29.6596845,81.3779019 32.0046374,80.2520161 L31.6530354,80.686744 C31.4203204,80.9748824 31.1905565,81.2613407 30.9637437,81.546119 C27.8853288,85.4309476 27.0290894,89.1179435 28.5531197,91.9291835 L30.4072513,90.9324597 C28.9236931,88.1955645 31.1547218,84.6925403 32.6167791,82.8477823 C32.8393761,82.5680444 33.0653457,82.2866263 33.294688,82.0035282 C35.2613828,79.5690524 37.489882,76.8094758 37.4354975,73.4248992 C37.3494941,68.3228327 32.3840641,65.2532762 28.3836425,62.7860383 Z" id="Path" fill="#F2F2F2" fill-rule="nonzero"></path>
                <path d="M114.632378,55.0667843 L115.623946,54.4518649 C115.718803,54.3926411 115.81113,54.3258569 115.905987,54.2704133 C111.534756,53.524581 108.272811,49.8495873 108.064503,45.4359879 C107.992727,43.9637312 108.272293,42.4954941 108.88027,41.1517137 C110.028362,38.6032351 112.251933,36.6934168 114.951096,35.9375 L114.901771,39.8147681 L117.040472,35.5972782 L117.065767,35.5972782 C122.277086,35.3557264 126.698555,39.3682326 126.942243,44.5602319 C126.951096,44.7404234 126.942243,44.9168347 126.942243,45.094506 C127.687184,44.2489919 128.362563,43.3417339 128.809022,42.3487903 C129.714587,40.3326613 129.732293,38.0645161 129.660202,35.2923387 C129.51855,29.8046875 129.280776,24.2754536 128.970911,18.7638609 C124.35839,18.2525265 120.802612,14.477526 120.583052,9.85887097 C120.570405,9.57157258 120.574199,9.28805444 120.583052,9.00579637 C120.583052,8.93523185 120.586847,8.86466734 120.594435,8.79410282 C120.612142,8.52066532 120.638702,8.24974798 120.679174,7.98387097 C120.685497,7.93976815 120.69688,7.8969254 120.703204,7.8578629 C120.74199,7.63104839 120.788786,7.40759409 120.843592,7.1875 C120.863828,7.10559476 120.884064,7.02242944 120.905565,6.93548387 C120.972597,6.69606855 121.044688,6.45791331 121.129427,6.22605847 C121.157251,6.14793347 121.190135,6.07358871 121.220489,5.99672379 C121.288786,5.82409274 121.360877,5.65524194 121.438027,5.49269153 C121.478499,5.40574597 121.517707,5.31754032 121.564503,5.23059476 C121.574621,5.20917339 121.584739,5.18523185 121.596121,5.16381048 L121.596121,5.16381048 C123.652187,1.11516602 128.317532,-0.892401952 132.685497,0.391885081 L132.62226,5.43220766 L134.736931,1.26386089 C138.303215,3.29867484 140.127768,7.40699476 139.240725,11.4049899 L139.252108,11.4049899 C139.236931,11.4717742 139.21543,11.530998 139.200253,11.6028226 C139.169899,11.7288306 139.13828,11.8548387 139.104132,11.9720262 C139.059865,12.1295363 139.009275,12.2832661 138.95742,12.436996 C138.918212,12.5529234 138.88027,12.6688508 138.830944,12.7835181 C138.766442,12.9498488 138.694351,13.1123992 138.620995,13.2736895 C138.577993,13.3681956 138.540051,13.4652218 138.494519,13.5584677 C138.374368,13.8016633 138.241568,14.0398185 138.10371,14.2704133 C138.055649,14.3523185 138,14.4291835 137.948145,14.5085685 C137.846965,14.6648185 137.744519,14.8185484 137.634486,14.968498 C137.566189,15.061744 137.494098,15.1499496 137.423272,15.2406754 C137.319562,15.3666835 137.214587,15.500252 137.103288,15.625 C137.02656,15.7090054 136.94688,15.7959509 136.86425,15.8858367 C136.749157,16.0118448 136.629005,16.125252 136.507589,16.2399194 C136.425379,16.3180444 136.344435,16.3961694 136.254637,16.4705141 C136.11425,16.5965222 135.970067,16.7099294 135.822091,16.8245968 C135.748735,16.8825605 135.676644,16.9443044 135.600759,16.999748 C135.376897,17.1635585 135.146712,17.3198085 134.907673,17.4647177 C134.863406,17.4911794 134.815346,17.5138609 134.769815,17.5403226 C134.570826,17.6579301 134.367622,17.7675571 134.160202,17.8692036 C134.070405,17.9133065 133.978078,17.9511089 133.887015,17.9952117 C133.716273,18.0720766 133.544266,18.1451613 133.368465,18.2119456 C133.264755,18.2510081 133.161046,18.2875504 133.057336,18.3228327 C132.882799,18.3820565 132.706998,18.4349798 132.528668,18.484123 C132.423693,18.5131048 132.318718,18.5420867 132.211214,18.5685484 C132.017707,18.6139113 131.821669,18.6517137 131.623103,18.6857359 L131.583895,18.6932964 C131.71543,21.0194052 131.831366,23.3459341 131.931703,25.6728831 C133.069322,23.3443445 135.120528,21.5863681 137.601462,20.8136438 C140.082395,20.0409196 142.773377,20.3218701 145.039629,21.5902218 L143.371417,26.1466734 L146.805228,22.8616431 C148.653988,24.5335236 149.760036,26.8688997 149.879848,29.3535786 C149.92399,30.2244969 149.843503,31.097242 149.640809,31.9455645 C148.757154,35.70171 145.661326,38.5396492 141.830864,39.1049246 C138.000401,39.6702001 134.21178,37.8482245 132.273187,34.5085685 C132.273187,34.7442036 132.289629,34.9823589 132.295953,35.217994 C132.359191,37.6612903 132.437605,40.7018649 131.215852,43.4160786 C130.387437,45.2570565 129.054384,46.750252 127.736509,48.0897177 C126.879005,48.9616935 125.993676,49.8055276 125.080523,50.6212198 C124.182877,51.8193958 123.012494,52.7880866 121.665683,53.4475806 C120.169477,54.5955141 118.620152,55.6754032 117.018971,56.6733871 L116.01855,57.2920867 C115.119309,57.8465222 114.198567,58.4173387 113.294266,59.0095766 C113.453626,58.9944556 113.610455,58.9768145 113.772344,58.969254 C117.878149,58.7803403 121.635705,61.2571008 123.067032,65.0957661 L117.165683,69.8840726 L123.657673,68.3858367 C123.653111,71.6203511 121.982621,74.626169 119.233452,76.3466176 C116.484283,78.0670661 113.04123,78.2613383 110.114671,76.8611391 C110.261383,77.0425907 110.40683,77.2240423 110.553541,77.4042339 C110.84317,77.7633569 111.132799,78.1212198 111.41484,78.4765625 C115.254637,83.3215726 116.323356,87.9271673 114.421164,91.4301915 L112.109191,90.1864919 C113.959528,86.7716734 111.175801,82.4017137 109.350759,80.1058468 C109.073777,79.7568044 108.790472,79.4052419 108.505902,79.0524194 C106.052277,76.015625 103.271079,72.5730847 103.339376,68.3505544 C103.445616,61.9732863 109.647976,58.1439012 114.632378,55.0667843 Z" id="Path" fill="#F2F2F2" fill-rule="nonzero"></path>
                <ellipse id="Oval" fill-opacity="0.3" fill="#DFE0E2" cx="74.0261383" cy="90.2217742" rx="65.0084317" ry="3.46522177"></ellipse>
                <ellipse id="Oval" fill-opacity="0.3" fill="#DFE0E2" cx="73.8996627" cy="89.1507056" rx="58.1787521" ry="2.77217742"></ellipse>
                <path d="M129.294688,21.8258569 L129.294688,88.4261593 C129.294688,88.92792 128.886422,89.3346774 128.382799,89.3346774 L19.665683,89.3346774 C19.4239512,89.3346774 19.1921385,89.2389189 19.021327,89.0685023 C18.8505155,88.8980858 18.7550581,88.6669973 18.7550581,88.4261593 L18.7550581,21.8258569 C18.7550581,21.5850188 18.8505155,21.3539303 19.021327,21.1835138 C19.1921385,21.0130973 19.4239512,20.9173308 19.665683,20.9173308 L128.379005,20.9173308 C128.62151,20.9163334 128.854428,21.011608 129.026262,21.1820973 C129.198096,21.3525866 129.294688,21.5842465 129.294688,21.8258569 Z" id="Path" fill="#F5F5F6"></path>
                <path d="M129.294688,21.5234375 L129.294688,23.5635081 L18.755059,23.5635081 L18.755059,21.5234375 C18.755059,21.1886984 19.0274254,20.9173387 19.3634064,20.9173387 L128.686341,20.9173387 C129.022322,20.9173387 129.294688,21.1886984 129.294688,21.5234375 Z" id="Path" fill="#DFE0E2"></path>
                <ellipse id="Oval" fill="#FA7D00" fill-rule="nonzero" cx="20.7786678" cy="22.1774194" rx="1" ry="1"></ellipse>
                <ellipse id="Oval" fill="#FA7D00" fill-rule="nonzero" cx="22.5493255" cy="22.1774194" rx="1" ry="1"></ellipse>
                <ellipse id="Oval" fill="#FA7D00" fill-rule="nonzero" cx="24.3199831" cy="22.1774194" rx="1" ry="1"></ellipse>
                <rect id="Rectangle" fill="#FB9733" opacity="0.2" x="57.2048904" y="30.1789315" width="33.6424958" height="1.7641129"></rect>
                <g id="humaaan-3" transform="translate(29.250000, 48.000000)">
                    <mask id="mask-2" fill="white">
                        <use xlink:href="#path-1"></use>
                    </mask>
                    <use id="Mask" fill="#FB9733" opacity="0.2" xlink:href="#path-1"></use>
                    <g mask="url(#mask-2)">
                        <g transform="translate(-12.000000, -3.000000)">
                            <g id="Bottom/Standing/Sprint" transform="translate(0.000000, 34.087955)">
                                <path d="M35.9991197,-1.81894713 C32.7246755,0.858516528 34.1955993,24.6098895 33.9781137,24.906759 C33.8814534,25.0387009 28.6635104,26.1211765 18.3242847,28.1541858 L18.7881085,29.9956821 C30.8994976,29.5012224 37.3041804,28.8045335 38.0021571,27.9056155 C39.0014597,26.6186223 40.1851926,19.3805924 41.5533559,6.1915259 L35.9991197,-1.81894713 Z" id="Leg" fill="#B28B67" transform="translate(29.938820, 14.088367) rotate(-55.000000) translate(-29.938820, -14.088367) "></path>
                                <path d="M20.0963931,26.231211 L20.9108484,29.1976911 C29.9525565,30.3244045 35.8951569,29.0866011 37.9727501,27.0988409 C39.3578122,25.7736673 40.5449424,18.5553695 41.5341406,5.44394747 L35.5932185,-3.04056862 C27.7942427,2.85176597 32.6528338,22.4189424 32.4562049,22.8638456 C32.259576,23.3087489 27.4994306,23.6183963 20.0963931,26.231211 Z" id="Pant" fill="#003057" transform="translate(30.815267, 13.292414) rotate(-55.000000) translate(-30.815267, -13.292414) "></path>
                                <g id="Accessories/Shoe/Flat-Sneaker" transform="translate(39.037879, 32.098927) rotate(20.000000) translate(-39.037879, -32.098927) translate(33.707794, 28.671003)" fill="#E4E4E4">
                                    <path d="M0.516394914,4.32607774 C0.297822173,4.85186107 0.188535803,5.24409832 0.188535803,5.50278948 C0.188535803,5.81186586 0.245174636,6.26288516 0.358452303,6.85584738 C0.752857619,6.85584738 4.2974446,6.85584738 10.9922133,6.85584738 C11.268547,6.02534841 11.1090311,5.57698875 10.5136657,5.51076838 C9.91830017,5.44454801 9.42371995,5.38475631 9.02992499,5.3313933 L4.06281619,3.31833706 C3.97760102,3.28380128 3.88031592,3.32265904 3.84234259,3.40639894 L3.51868387,4.12014061 L3.51868387,4.12014061 C2.96753115,4.35391766 2.51966234,4.47080618 2.17507744,4.47080618 C1.88600901,4.47080618 1.48322261,4.36122373 0.966718262,4.14205882 L0.966672959,4.14216559 C0.79245338,4.06824014 0.591292087,4.14954459 0.517366635,4.32376417 C0.517039905,4.32453417 0.516715996,4.32530537 0.516394914,4.32607774 Z" id="shoe"></path>
                                </g>
                                <polygon id="Leg" fill="#997659" points="22.7183962 0 13.6754326 21.2920183 4.78760678 39.292625 6.88453254 39.292625 29.8264036 0"></polygon>
                                <g id="Accessories/Shoe/Flat-Sneaker" transform="translate(4.194165, 34.107841)" fill="#E4E4E4">
                                    <path d="M0.516394914,4.32607774 C0.297822173,4.85186107 0.188535803,5.24409832 0.188535803,5.50278948 C0.188535803,5.81186586 0.245174636,6.26288516 0.358452303,6.85584738 C0.752857619,6.85584738 4.2974446,6.85584738 10.9922133,6.85584738 C11.268547,6.02534841 11.1090311,5.57698875 10.5136657,5.51076838 C9.91830017,5.44454801 9.42371995,5.38475631 9.02992499,5.3313933 L4.06281619,3.31833706 C3.97760102,3.28380128 3.88031592,3.32265904 3.84234259,3.40639894 L3.51868387,4.12014061 L3.51868387,4.12014061 C2.96753115,4.35391766 2.51966234,4.47080618 2.17507744,4.47080618 C1.88600901,4.47080618 1.48322261,4.36122373 0.966718262,4.14205882 L0.966672959,4.14216559 C0.79245338,4.06824014 0.591292087,4.14954459 0.517366635,4.32376417 C0.517039905,4.32453417 0.516715996,4.32530537 0.516394914,4.32607774 Z" id="shoe"></path>
                                </g>
                                <path d="M5.59021944,35.5532057 L10.2496117,36.4101867 C13.8522407,31.2155086 28.9293903,9.91558448 30.5824565,2.84217094e-14 L20.209599,2.84217094e-14 C14.6891699,7.16796361 9.02426893,30.2725978 5.59021944,35.5532057 Z" id="Pant" fill="#406481"></path>
                            </g>
                            <g id="Head/Front/Wavy" transform="translate(27.117079, 11.524477) rotate(14.000000) translate(-27.117079, -11.524477) translate(15.389765, 2.627164)">
                                <g id="Head" stroke-width="1" transform="translate(9.255394, 5.313282)" fill="#B28B67">
                                    <path d="M6.53762318,1.56552125 C7.53083163,3.41679232 7.41281265,8.11269489 6.12917922,8.44356867 C5.61720714,8.57553636 4.52648562,8.25221427 3.41645099,7.58306671 L4.11350843,12.5119215 L0,12.5119215 L1.41546705,5.91070698 C0.626048507,4.98380849 0.0918304615,3.84798542 0.181127432,2.57530547 C0.438488039,-1.0926542 5.54441473,-0.285749809 6.53762318,1.56552125 Z"></path>
                                </g>
                                <path d="M16.1813589,7.71002303 C16.1406126,7.47005984 16.0410312,7.20358333 15.9606807,6.97655561 C15.8570885,6.68388696 15.7003188,6.42000921 15.5277978,6.17131532 C15.2029962,5.70309803 14.8133564,5.28028629 14.3831563,4.92936422 C13.5973425,4.28837227 12.5970395,3.91864559 11.6133644,4.03871478 C11.1167058,4.09933337 10.6345767,4.28878107 10.2242185,4.60410869 C9.85346439,4.88901022 9.49684134,5.3084056 9.01675753,5.3385397 C8.49438683,5.37130177 8.01555144,4.91023841 7.59661365,4.62548288 C7.12425942,4.30446131 6.62175719,4.07054246 6.06969003,3.97961458 C5.14485004,3.82733811 4.27602958,4.13980417 3.63864488,4.89858773 C2.96038108,5.7060472 2.46733496,6.89018288 2.91275519,7.96006011 C2.99554933,8.15893931 3.10206344,8.32660402 3.25492846,8.46556542 C3.39512334,8.59299294 3.60924061,8.72856717 3.66608355,8.93217672 C3.72645926,9.14860495 3.54610245,9.42781254 3.47616438,9.62310017 C3.37597205,9.90289175 3.29370916,10.1965824 3.32295405,10.5006973 C3.37100493,11.0001291 3.68486297,11.4769019 4.01627858,11.805165 C4.35353785,12.1392096 4.76862414,12.3307597 5.21197253,12.4190596 C5.50800738,12.4780138 5.81054996,12.5105423 6.11141912,12.4884089 C6.26077794,12.4774298 6.39257919,12.4359371 6.53728964,12.4029414 C6.67801576,12.3708509 6.75666621,12.4082265 6.87606295,12.4854014 C7.43070663,12.8439737 8.02707941,12.9827016 8.66751874,12.9293829 C9.20803138,12.8843569 9.8310194,12.7533671 10.2719506,12.3830272 C10.7616234,11.9717201 10.7518751,11.404545 10.6366486,10.7985635 C10.7587281,10.8590653 11.0964655,10.8965286 10.8946465,10.6553682 C10.8146945,10.5598559 10.6636357,10.5209911 10.5610528,10.4648109 C10.4416029,10.3994036 10.3203203,10.3148704 10.2275653,10.2081747 C9.8530394,9.77736222 10.2313106,8.90061184 10.7020445,8.7561317 C11.4014252,8.54148466 11.5580089,9.5305663 12.0572706,9.78641413 C12.3443274,9.93352225 12.6446122,9.73245307 12.8596857,9.52714994 C13.1477785,9.2521179 13.3441257,8.88776397 13.5136452,8.5169861 C13.6532823,8.21164478 13.7832242,7.90201109 13.925544,7.59818815 C13.9920025,7.45630678 14.2220836,7.05521962 14.1065383,6.89479643 C14.6074734,6.79490424 15.1654108,7.00306894 15.5968328,7.276057 C15.7751443,7.38891386 15.9110893,7.51333381 16.0062082,7.7125634 C16.0265814,7.75525337 16.0709401,7.88215529 16.1266409,7.88735284 C16.2303394,7.89704714 16.1915853,7.77032042 16.1813589,7.71002303" id="hair" fill="#191847"></path>
                            </g>
                            <g id="Body/Hoodie" transform="translate(25.735896, 32.687601) rotate(1.000000) translate(-25.735896, -32.687601) translate(3.660952, 16.689548)">
                                <path d="M11.7077182,15.9432545 L15.2894515,15.9573398 C13.0778965,23.0966195 11.8839854,26.8846766 11.7077182,27.3215111 C11.3111172,28.3043887 12.1503784,29.8012942 12.5092798,30.6057201 C11.3403499,31.1287814 11.4649006,29.1916718 9.99032691,29.8776959 C8.64440444,30.5038669 7.62056456,31.6384468 6.06554561,30.6789523 C5.87436517,30.5609881 5.66486255,30.1168316 6.17104736,29.7697468 C7.43213832,28.9050319 9.24944679,27.3916251 9.49499378,26.8934755 C9.82984097,26.2141596 10.5674158,22.5640859 11.7077182,15.9432545 L11.7077182,15.9432545 Z M32.6991706,15.8046968 L38.1664125,19.8194122 C39.6492411,20.2195329 40.8880965,20.7173506 41.8829786,21.3128652 C42.117987,21.5270085 42.4020168,21.9606842 41.42738,21.8857342 C40.4527432,21.8107841 39.4242007,21.775781 39.2897198,22.1082146 C39.1552388,22.4406481 39.7450362,22.8382022 39.4731917,23.2867421 C39.291962,23.5857687 38.4357601,22.8359706 36.904586,21.0373477 L31.4905822,18.7922971 L32.6991706,15.8046968 Z" id="Skin" fill="#B28B67"></path>
                                <path d="M21.0357509,1.64202871 L22.4900392,1.25961457 C28.3820941,5.51258742 31.4274974,14.4069361 38.5635627,18.6354546 L37.1226534,20.7801659 C25.3476512,20.3570061 21.4902217,9.52052705 21.0357509,1.64202871 Z" id="Coat-Back" fill="#FA7D00" transform="translate(29.799657, 11.019890) rotate(5.000000) translate(-29.799657, -11.019890) "></path>
                                <path d="M15.4256566,19.539165 C21.3682633,19.539165 25.7395202,19.539165 28.5394273,19.539165 C29.1386598,19.539165 29.0257459,18.6738949 28.9391232,18.2372749 C27.9393928,13.1981517 24.0368245,7.76622087 24.0368245,0.593155969 L20.2541957,0 C17.1254757,5.03191892 16.0435101,11.2272299 15.4256566,19.539165 Z" id="Shirt" fill="#DFE0E2"></path>
                                <path d="M19.9693748,-1.22124533e-15 C20.0949413,-1.11022302e-15 20.2101502,0.00771950977 20.3150016,0.0231585293 L21.5053513,0.0916523861 C24.9028348,11.606126 25.8398405,19.2884035 24.3163684,23.1384849 L24.3163684,23.1384849 L13.9949381,23.1381848 C13.3833501,24.5643108 12.7981137,25.7641841 12.2392289,26.7378048 L12.2392289,26.7378048 L9.42679015,26.7378048 C9.16208941,18.1791473 11.1970147,10.915018 15.5315659,4.94541702 C14.9818989,4.78842795 14.5466956,4.42006722 14.2258833,3.84119249 C12.8433258,1.34650141 13.342632,-0.0270108021 14.8201476,-0.478492024 C16.2976631,-0.929973246 17.6152976,-3.55271368e-15 19.9693748,-1.22124533e-15 Z" id="Coat-Front" fill="#FB9733"></path>
                                <path d="M17.8252032,23.1384849 L13.9945282,23.1391405 C14.7079119,21.4757293 15.4571506,19.5044684 16.2422446,17.2253579 C16.5670186,19.9409551 17.0946174,21.9121234 17.8252032,23.1384849 Z" id="Shade" fill-opacity="0.1" fill="#000000"></path>
                            </g>
                        </g>
                    </g>
                </g>
                <g id="humaaan-8" transform="translate(60.750000, 48.000000)">
                    <mask id="mask-4" fill="white">
                        <use xlink:href="#path-3"></use>
                    </mask>
                    <use id="Mask" fill="#FB9733" opacity="0.2" xlink:href="#path-3"></use>
                    <g mask="url(#mask-4)">
                        <g transform="translate(14.000000, 34.500000) scale(-1, 1) translate(-14.000000, -34.500000) translate(-12.500000, -3.000000)">
                            <g id="Head/Front/Short-Beard" transform="translate(14.330906, 0.000000)">
                                <g id="Head" stroke-width="1" transform="translate(9.512899, 5.461108)" fill="#57331F">
                                    <path d="M6.71951365,1.60907736 C7.74035526,3.51185469 7.61905274,8.33840718 6.29970592,8.67848657 C5.77347203,8.81413043 4.65234674,8.48178597 3.51138896,7.79397437 L4.22795492,12.8600295 L0,12.8600295 L1.45547612,6.07589234 C0.643749744,5.12307069 0.0943617093,3.95538184 0.186166779,2.6469559 C0.450687702,-1.12305415 5.69867205,-0.293699972 6.71951365,1.60907736 Z"></path>
                                </g>
                                <path d="M13.9402823,5.21810167 C15.1265588,5.31985311 16.1858469,5.68158099 16.4860577,5.89640227 C16.4860577,7.01949231 16.268443,7.35270983 14.4097169,7.32333794 C13.9529873,7.56454554 13.601879,7.97990873 13.2361699,8.52446302 C13.3979848,10.7787053 13.8261032,11.9060432 14.5205221,11.9060432 C15.5621504,11.9060432 16.445898,11.2447824 16.9029395,11.2447824 C17.2361072,11.2447824 17.1617211,11.6617109 16.9408801,11.9708338 C16.7586791,12.2258701 15.8713759,12.4716947 15.8713759,12.8670866 C15.8713759,13.2624785 16.572419,12.9565856 16.572419,13.1910848 C16.572419,13.5789752 16.6956263,14.3082784 16.0224031,14.3082784 C15.3410788,14.3082784 13.3876012,14.0599907 13.0528281,13.0487852 C12.8368612,12.3964423 12.6971928,11.044944 12.6338227,8.99429034 C12.592617,8.98694271 12.5504549,8.9844042 12.5077,8.9844042 C11.9239412,8.9844042 11.4507112,9.45763417 11.4507112,10.0413929 C11.4507112,10.3377406 11.5726687,10.6056035 11.7691317,10.7975299 C11.5245589,11.1427428 11.2504629,11.5033639 10.9363781,11.875478 C9.75642971,11.167557 8.88084091,9.09520679 10.034432,7.10442261 C10.3532882,6.12916839 11.075134,5.60824846 11.9276513,5.36636861 C12.6182342,5.07749557 13.3351247,5.04492488 13.9402823,5.21810167 Z" id="Hair" fill="#191847"></path>
                            </g>
                            <g id="Bottom/Standing/Baggy-Pants" transform="translate(0.000000, 32.899247)">
                                <polygon id="Leg" fill="#3D2216" points="23.1606838 0 31.6439998 21.8844071 37.3337949 40.3858287 39.5805717 40.3858287 30.8821253 8.96745538e-14"></polygon>
                                <path d="M21.4524327,0 C21.3620975,7.69033093 20.0446788,18.0441133 19.8341996,18.5234894 C19.6938802,18.8430734 14.849828,22.9071417 5.30204306,30.7156941 L6.84952531,32.4035285 C18.1150271,25.7086745 24.008434,21.9147833 24.5297459,21.0218547 C25.3117139,19.6824619 27.8575323,7.35719418 29.9014799,0 L21.4524327,0 Z" id="Leg" fill="#57331F"></path>
                                <g id="Accessories/Shoe/Flat-Sneaker" transform="translate(8.901308, 33.295145) rotate(50.000000) translate(-8.901308, -33.295145) translate(3.629659, 29.771849)" fill="#E4E4E4">
                                    <path d="M0.471795942,4.47491548 C0.274708506,5.00103384 0.176164788,5.39469158 0.176164788,5.6558887 C0.176164788,5.97356423 0.229087193,6.43713184 0.334932002,7.04659153 C0.703457915,7.04659153 4.01546235,7.04659153 10.2709453,7.04659153 C10.5291471,6.19298632 10.380098,5.73215234 9.8237982,5.66408958 C9.26749838,5.59602682 8.80537066,5.5345716 8.43741506,5.47972391 L3.81925131,3.42092349 C3.73038866,3.38130808 3.6262366,3.42123085 3.58662119,3.51009351 C3.58594348,3.5116137 3.58528735,3.51314342 3.58465299,3.51468221 L3.28780098,4.23477162 L3.28780098,4.23477162 C2.77281284,4.47505284 2.35433151,4.59519344 2.03235699,4.59519344 C1.77073872,4.59519344 1.40943344,4.48952551 0.948441141,4.27818963 L0.948387251,4.27830719 C0.771567595,4.19724653 0.562514299,4.27487454 0.481453647,4.4516942 C0.47795899,4.45931718 0.474737702,4.46706254 0.471795942,4.47491548 Z" id="shoe"></path>
                                </g>
                                <g id="Accessories/Shoe/Flat-Sneaker" transform="translate(35.950912, 35.056793)" fill="#E4E4E4">
                                    <path d="M0.471795942,4.47491548 C0.274708506,5.00103384 0.176164788,5.39469158 0.176164788,5.6558887 C0.176164788,5.97356423 0.229087193,6.43713184 0.334932002,7.04659153 C0.703457915,7.04659153 4.01546235,7.04659153 10.2709453,7.04659153 C10.5291471,6.19298632 10.380098,5.73215234 9.8237982,5.66408958 C9.26749838,5.59602682 8.80537066,5.5345716 8.43741506,5.47972391 L3.81925131,3.42092349 C3.73038866,3.38130808 3.6262366,3.42123085 3.58662119,3.51009351 C3.58594348,3.5116137 3.58528735,3.51314342 3.58465299,3.51468221 L3.28780098,4.23477162 L3.28780098,4.23477162 C2.77281284,4.47505284 2.35433151,4.59519344 2.03235699,4.59519344 C1.77073872,4.59519344 1.40943344,4.48952551 0.948441141,4.27818963 L0.948387251,4.27830719 C0.771567595,4.19724653 0.562514299,4.27487454 0.481453647,4.4516942 C0.47795899,4.45931718 0.474737702,4.46706254 0.471795942,4.47491548 Z" id="shoe"></path>
                                </g>
                                <polygon id="Pant" fill="#7197A1" points="28.8644343 38.4801836 39.5467751 37.2985474 31.6298891 2.84217094e-14 22.0621196 2.84217094e-14"></polygon>
                                <path d="M7.51165932,27.9926693 L14.5186376,36.4460214 C21.8989369,28.2304004 26.2016707,22.8697063 27.4268389,20.3639389 C28.6520071,17.8581716 29.753371,11.0701919 30.7309306,0 L19.9593495,0 C19.4253568,9.73907199 19.0654086,14.8352113 18.8795049,15.288418 C18.6936011,15.7416247 14.9043192,19.9763751 7.51165932,27.9926693 Z" id="Pant" fill="#A4BCC2"></path>
                            </g>
                            <g id="Body/Turtle-Neck" transform="translate(3.844877, 14.426408)">
                                <path d="M10.7407305,11.8822592 L14.5982799,11.8967364 C11.6602474,21.4155904 10.1006455,26.3995116 9.91947422,26.8484997 C9.51183885,27.858723 10.3744501,29.3972756 10.7433369,30.2240823 C9.54188487,30.7616963 9.66990087,28.7706922 8.15430143,29.4758029 C6.77093255,30.1193953 5.71860729,31.2855416 4.12032443,30.299352 C3.92382495,30.1781058 3.70849353,29.7215919 4.22876146,29.3648505 C5.52493863,28.4760774 7.39280846,26.9205644 7.64518709,26.4085553 C7.98935044,25.7103393 9.02119823,20.8682406 10.7407305,11.8822592 L10.7407305,11.8822592 Z M35.1436638,16.2882552 L40.1340431,21.1565732 C41.5860595,21.7759353 42.7757801,22.4598361 43.703205,23.2082756 C43.9117689,23.4598516 44.1388247,23.9418842 43.1575417,23.7261815 L42.8101859,23.6521828 C41.9429819,23.474424 41.1126975,23.3652675 40.9499649,23.6468444 C40.7655345,23.9659648 41.3089736,24.4549708 40.9681234,24.8726173 C40.74089,25.1510484 39.9766861,24.2654137 38.6755117,22.2157134 L33.4861773,19.1562101 L35.1436638,16.2882552 Z" id="Skin" fill="#57331F"></path>
                                <path d="M21.6274467,1.71126208 L23.1221964,1.31820837 C26.2520657,9.5594453 39.0386274,14.2449741 40.0690152,17.3379734 C40.4468856,18.472258 39.6643668,19.1308209 40.1259158,19.4460026 L38.2797611,21.0625076 C37.911643,20.702016 37.2612099,21.4772576 35.7290249,21.1088304 C34.1968399,20.7404032 22.5028554,11.7172294 21.6274467,1.71126208 Z" id="Clothes-Back" fill="#191847" transform="translate(30.901641, 11.264548) rotate(5.000000) translate(-30.901641, -11.264548) "></path>
                                <path d="M19.786059,-0.831669403 L24.5309218,-0.499876274 C24.9191463,-0.472728972 25.2118572,-0.136003597 25.1847099,0.252220902 L25.0582213,2.04112594 C24.8721836,13.2930534 31.3753269,16.1586954 29.9281536,20.6673438 C28.7340204,24.3876495 17.304197,28.3869624 15.3263366,24.7401848 C14.5255496,23.2636943 14.1623245,21.4779161 14.1212416,19.5363947 C13.6159202,21.0283988 13.2160304,22.3124447 12.9218857,23.3889548 C12.4145412,25.2457335 10.4476747,25.5408768 10.4476747,26.2561747 L10.4476747,26.2561747 L7.85635587,25.5408768 C8.03211892,24.569115 6.81050861,24.0959249 7.13805418,21.9249242 C8.60561599,12.1977965 12.5486316,5.14684389 18.967101,0.772066486 L19.0339619,-0.177881302 C19.0611092,-0.566105802 19.3978345,-0.858816705 19.786059,-0.831669403 Z" id="Clothes-Front" fill="#003057"></path>
                            </g>
                        </g>
                    </g>
                </g>
                <g id="humaaan-12" transform="translate(92.744519, 48.000000)">
                    <mask id="mask-6" fill="white">
                        <use xlink:href="#path-5"></use>
                    </mask>
                    <use id="Mask" fill="#FB9733" opacity="0.2" transform="translate(12.963744, 15.193044) rotate(-180.000000) translate(-12.963744, -15.193044) " xlink:href="#path-5"></use>
                    <g mask="url(#mask-6)">
                        <g transform="translate(18.505481, 33.000000) scale(-1, 1) translate(-18.505481, -33.000000) translate(-7.494519, -4.500000)">
                            <g id="Head/Front/Pony" transform="translate(31.524375, 11.537388) rotate(15.000000) translate(-31.524375, -11.537388) translate(19.905736, 2.714680)">
                                <g id="Head" stroke-width="1" transform="translate(9.162098, 5.259723)" fill="#D4A181">
                                    <path d="M6.47172248,1.54974045 C7.45491916,3.38235029 7.33808984,8.03091711 6.06739572,8.35845561 C5.56062349,8.48908297 4.48102404,8.16907943 3.38226642,7.50678083 L4.07204335,12.3857985 L0,12.3857985 L1.40146213,5.85143488 C0.619856591,4.93382314 0.0908948622,3.80933836 0.179301627,2.54934581 C0.434067982,-1.08164 5.48852579,-0.282869387 6.47172248,1.54974045 Z"></path>
                                </g>
                                <path d="M14.4218202,3.39336946 C15.3588733,3.39336946 16.1185049,4.15300108 16.1185049,5.09005418 C16.1185049,6.02710728 15.3588733,6.78673891 14.4218202,6.78673891 L14.5163446,6.78348636 C14.0044003,6.94174697 13.3461334,7.05795598 12.6159862,7.10691716 C12.6866327,7.37274885 12.7251355,7.67524399 12.7251355,8.0171004 C12.7251355,8.31877014 12.6918418,8.63870584 12.6305364,8.96355735 C12.4722457,8.77561788 12.2609353,8.65309211 12.0464616,8.65309211 C11.4462481,8.65309211 11.0284507,9.14685267 11.0284507,9.67110295 C11.0284507,10.3361578 11.4122141,10.8173596 11.9725269,10.8562405 C11.4686113,11.825263 10.7700992,12.555467 10.0722566,12.555467 C8.74702443,12.555467 7.80474975,10.7836665 7.80474975,8.878678 C7.80474975,8.81265359 7.80604024,8.74706245 7.80858694,8.68195386 C6.40658408,9.6416966 5.32622367,11.5374561 3.47154344,11.5374561 C0.947976639,11.5374561 -0.0542369451,6.44740197 3.47154344,6.44740197 C5.86938961,6.44740197 7.04885164,6.79701453 8.06533185,7.31400548 C8.26537887,6.74972259 8.5705427,6.27498281 8.94369962,5.94315998 C9.03565215,5.83935169 9.17826988,5.7398372 9.36297366,5.64785435 C9.46382839,5.59313193 9.56704594,5.54866476 9.67291782,5.51425908 C10.2855415,5.28695594 11.1802186,5.12560849 12.180602,5.09067433 C12.3659819,5.08420072 12.5480436,5.0823107 12.7256469,5.08470516 C12.7278744,4.15026515 13.4864561,3.39336946 14.4218202,3.39336946 Z" id="hair" fill="#191847"></path>
                            </g>
                            <g id="Bottom/Standing/Sweatpants" transform="translate(0.000000, 34.442497)">
                                <polygon id="Leg" fill="#BA8B72" points="21.7175645 9.9475983e-14 27.9326628 21.4167269 30.8559346 37.4967325 33.7900188 37.4967325 30.8611638 9.9475983e-14"></polygon>
                                <path d="M18.9244359,0 C19.3581047,11.1258785 19.187072,17.194235 19.0900117,18.2050694 C18.9929515,19.2159038 18.4419332,25.9857951 14.6871286,37.8360694 L17.7388342,37.8360694 C22.7114553,26.4677561 24.4473497,19.6978648 25.0176717,18.2050694 C25.5879937,16.712274 27.272409,10.6439176 29.7315808,0 L18.9244359,0 Z" id="Leg" fill="#D4A181"></path>
                                <path d="M21.5841438,1.13686838e-13 C23.2007878,7.3695544 25.996889,19.1332352 29.9724475,35.2910423 L34.2638795,35.2910423 C34.5808506,18.7065986 33.23247,7.7912602 30.8974115,1.13686838e-13 L21.5841438,1.13686838e-13 Z" id="Pant" fill="#7197A1"></path>
                                <path d="M18.9027508,0 C19.3274726,11.1258785 18.226779,22.0869761 14.8172339,35.4642667 L19.3959557,35.4642667 C24.3777187,24.2656218 27.9483087,13.3586131 30.3885696,0 L18.9027508,0 Z" id="Pant" fill="#A4BCC2"></path>
                                <g id="Accessories/Shoe/Flat-Simple" transform="translate(14.252152, 33.764026)" fill="#191847">
                                    <path d="M0,6.27773349 L0.168382839,3.56303793 C1.15424069,3.85137679 2.38904818,3.73826448 3.87280529,3.22370098 C5.46819827,4.35379407 7.47658838,5.12545416 9.89797565,5.53868124 C10.0827295,5.57019071 10.2069401,5.74551993 10.1754111,5.93027047 C10.1733694,5.94223447 10.1706873,5.95408032 10.1673764,5.96575696 L9.93458749,6.78673891 L9.93458749,6.78673891 L3.87280529,6.78673891 L0.336765678,6.78673891 L0,6.27773349 Z" id="Shoe"></path>
                                </g>
                                <g id="Accessories/Shoe/Flat-Simple" transform="translate(30.200988, 33.764026)" fill="#191847">
                                    <path d="M0,6.27773349 L0.168382839,3.56303793 C1.15424069,3.85137679 2.38904818,3.73826448 3.87280529,3.22370098 C5.46819827,4.35379407 7.47658838,5.12545416 9.89797565,5.53868124 C10.0827295,5.57019071 10.2069401,5.74551993 10.1754111,5.93027047 C10.1733694,5.94223447 10.1706873,5.95408032 10.1673764,5.96575696 L9.93458749,6.78673891 L9.93458749,6.78673891 L3.87280529,6.78673891 L0.336765678,6.78673891 L0,6.27773349 Z" id="Shoe"></path>
                                </g>
                            </g>
                            <g id="Body/Pointing-Forward" transform="translate(27.430775, 32.491321) rotate(10.000000) translate(-27.430775, -32.491321) translate(5.560396, 16.627412)">
                                <path d="M41.4167874,7.87393761 C42.1690222,7.72259296 44.0050123,6.38813486 44.3213625,6.65908028 C44.7893823,7.05992656 44.3720671,8.29075694 43.8803707,8.90302914 C42.9613906,10.0473651 42.2005148,10.4386935 40.319892,10.9511404 C39.3366053,11.219074 38.2734985,11.756124 37.1305716,12.5622903 L36.9798355,9.96629889 L39.6268492,8.545218 C39.9982626,7.16406644 40.4422422,6.46916239 40.9587879,6.46050585 C41.3556023,6.28006827 40.6645527,8.02528226 41.4167874,7.87393761 Z M36.8608753,1.95822987 C36.3748387,2.80129079 35.9023984,3.70942643 36.1500149,3.96915525 C36.3976314,4.22888408 37.0150854,3.86605436 37.3104882,4.29759601 C37.5074233,4.58529044 36.452552,5.03976665 34.1458743,5.66102463 L29.767169,9.57908192 L27.5418244,7.24488326 L33.5679372,4.01941589 C34.5700428,2.85645734 35.557396,1.9532571 36.5299968,1.30981514 C36.8271922,1.18856076 37.3469119,1.11516895 36.8608753,1.95822987 Z" id="Skin" fill="#D4A181"></path>
                                <path d="M24.7995449,5.88095954 C26.8876997,6.18962776 29.7358696,6.19963483 32.9936086,4.82935252 L33.7564253,7.55267951 C31.3960463,9.21302794 28.2608327,10.3877993 25.7561894,9.92033054 C23.7823925,9.55193936 23.1403711,7.048063 24.7995449,5.88095954 Z" id="Sleeve" fill="#228F48" transform="translate(28.803607, 7.426548) rotate(-9.000000) translate(-28.803607, -7.426548) "></path>
                                <path d="M24.7476264,-1.42108547e-13 C25.0134257,3.33726835 26.3512854,7.01523295 27.4492091,10.6487853 C29.6894373,11.1948326 33.4472797,10.5508194 38.7222166,8.71644986 C40.0305285,11.361598 40.6353282,13.2473857 40.5366159,14.3738131 C36.011004,16.6840904 32.1322791,17.713897 28.9368764,17.7815522 C29.0401996,19.6336509 28.8094967,21.3969225 28.0341759,23.0080572 C26.4405269,26.3196972 17.1088264,23.2527493 13.9712228,23.8563995 C12.0063631,17.6202949 15.8054787,15.0859672 15.8085355,11.0957439 C15.8118831,6.72602426 19.4021582,-1.42108547e-13 19.9303953,-1.42108547e-13 L19.9303953,-1.42108547e-13 Z" id="Clothes" fill="#64C887"></path>
                            </g>
                        </g>
                    </g>
                </g>
                <path d="M15.6032884,91.2222782 C14.0210793,91.234879 11.9279089,90.9702621 11.5067454,90.718246 C11.1854975,90.5229335 11.0577572,89.8248488 11.0147555,89.5022681 L10.9679595,89.5022681 C10.9679595,89.5022681 11.0564924,90.6287802 11.4738617,90.8883569 C11.891231,91.1479335 13.9894604,91.4012097 15.5716695,91.3923891 C16.0282462,91.3923891 16.1850759,91.2273185 16.1762226,90.9879032 C16.1167791,91.1290323 15.9422428,91.218498 15.6032884,91.2222782 Z" id="Path" fill="#000000" fill-rule="nonzero" opacity="0.2"></path>
                <path d="M134.213322,90.219254 C131.399241,90.2419355 127.675801,89.7832661 126.925801,89.328377 C126.355396,88.9818548 126.12774,87.7381552 126.05059,87.1648185 L125.968381,87.1648185 C125.968381,87.1648185 126.125211,89.1670867 126.875211,89.6219758 C127.625211,90.0768649 131.349916,90.5355343 134.162732,90.5128528 C134.97597,90.5065524 135.255481,90.219254 135.240304,89.7920867 C135.12774,90.0541835 134.817875,90.2154738 134.213322,90.219254 Z" id="Path" fill="#000000" fill-rule="nonzero" opacity="0.2"></path>
            </g>
        </g>
    </g>
</svg>