<?xml version="1.0" encoding="UTF-8"?>
<svg width="144px" height="120px" viewBox="0 0 144 120" version="1.1" xmlns="http://www.w3.org/2000/svg" xmlns:xlink="http://www.w3.org/1999/xlink">
    <!-- Generator: Sketch 59.1 (86144) - https://sketch.com -->
    <title>Large/Choose@1.5x</title>
    <desc>Created with Sketch.</desc>
    <g id="Style-Sheet" stroke="none" stroke-width="1" fill="none" fill-rule="evenodd">
        <g id="Styles:-Icons-&amp;-Illustrations" transform="translate(-637.000000, -492.000000)">
            <g id="Large/Choose" transform="translate(632.000000, 492.000000)">
                <g id="undraw_Choose_bwbs" transform="translate(69.750000, 0.000000)">
                    <polygon id="Path" fill="#F5F5F5" fill-rule="nonzero" points="79.2135971 23.6706272 68.025533 20.3077923 67.337465 35.5179327 79.1117375 39.0461933"></polygon>
                    <polygon id="Path" fill="#F5F5F5" fill-rule="nonzero" points="0.458368347 0 0.458368347 15.4768303 67.337465 35.5179327 68.025533 20.3077923"></polygon>
                    <polygon id="Path" fill="#000000" fill-rule="nonzero" opacity="0.1" points="79.2135971 23.6706272 68.025533 20.3077923 67.337465 35.5179327 79.1117375 39.0461933"></polygon>
                    <polygon id="Path" fill="#64C887" points="79.2135971 52.8035808 68.025533 49.4407458 67.337465 64.6508862 79.1117375 68.1793518"></polygon>
                    <polygon id="Path" fill="#8BD6A5" points="0.458368347 29.1329535 0.458368347 44.6097838 67.337465 64.6508862 68.025533 49.4407458"></polygon>
                    <polygon id="Path" fill="#000000" fill-rule="nonzero" opacity="0.1" points="79.2135971 52.8035808 68.025533 49.4407458 67.337465 64.6508862 79.1117375 68.1793518"></polygon>
                    <polyline id="Path" stroke="#FFFFFF" stroke-width="1.4365881" stroke-linecap="round" points="70.8699735 58.1648478 72.7015912 60.8959084 76.3646203 56.3439357"></polyline>
                    <g id="Group" opacity="0.4" transform="translate(70.809971, 26.238517)" stroke="#FFFFFF" stroke-linecap="round" stroke-width="1.4365881">
                        <line x1="0.16177949" y1="0.0620848412" x2="3.82481065" y2="6.43492252" id="Path"></line>
                        <line x1="4.74056793" y1="0.972491689" x2="0.16177949" y2="5.52451773" id="Path"></line>
                    </g>
                    <polygon id="Path" fill="#F5F5F5" fill-rule="nonzero" points="79.2135971 80.1156222 68.025533 76.7529922 67.337465 91.9631326 79.1117375 95.4913932"></polygon>
                    <polygon id="Path" fill="#F5F5F5" fill-rule="nonzero" points="0.458368347 56.4451999 0.458368347 71.9220303 67.337465 91.9631326 68.025533 76.7529922"></polygon>
                    <polygon id="Path" fill="#000000" fill-rule="nonzero" opacity="0.1" points="79.2135971 80.1156222 68.025533 76.7529922 67.337465 91.9631326 79.1117375 95.4913932"></polygon>
                    <g id="Group" opacity="0.4" transform="translate(70.809971, 82.610331)" stroke="#FFFFFF" stroke-linecap="round" stroke-width="1.4365881">
                        <line x1="0.16177949" y1="0.135409197" x2="3.82481065" y2="6.50824893" id="Path"></line>
                        <line x1="4.74056793" y1="1.04581604" x2="0.16177949" y2="5.59784208" id="Path"></line>
                    </g>
                </g>
                <g id="Group-3" transform="translate(42.000000, 60.750000) scale(-1, 1) translate(-42.000000, -60.750000) translate(0.000000, 0.750000)">
                    <g id="Head/Front/Long" transform="translate(39.756677, 14.594595) scale(-1, 1) translate(-39.756677, -14.594595) translate(20.688427, 0.000000)">
                        <path d="M21.4039379,7.51319367 C24.3572489,7.51319367 26.7530884,9.90001289 26.7676961,12.849891 C27.7178261,16.4927653 28.8862063,24.1103754 27.636954,25.3284968 L19.5508588,25.3284968 L19.5503742,25.3211937 L19.3631031,25.3177713 C16.5032682,25.2018214 14.2203742,22.8467199 14.2203742,19.95842 L14.2203742,12.877019 C14.2203742,9.91466008 16.6218406,7.51319367 19.5841996,7.51319367 L21.4039379,7.51319367 Z" id="Hair-Back" fill="#D4C691"></path>
                        <g id="Head" stroke-width="1" transform="translate(15.056867, 8.626259)" fill="#D4A181">
                            <path d="M10.6355409,2.54166692 C12.2513131,5.54725654 12.0593173,13.1711839 9.97107584,13.7083666 C9.13826525,13.9226001 7.36410535,13.3977935 5.55844896,12.3116161 L6.69194081,20.3134495 L0,20.3134495 L2.30379299,9.59746326 C1.0189568,8.09238602 0.149350911,6.24789058 0.294661862,4.18107944 C0.713341434,-1.77395423 9.01976885,-0.463922695 10.6355409,2.54166692 Z"></path>
                        </g>
                        <path d="M20.3550488,7.7914601 C23.5839188,7.7914601 24.6030836,9.29084931 25.4708319,10.5638524 C24.8219065,12.785978 22.3034765,13.1153479 20.0658374,14.5005956 C19.8028429,14.2865983 19.4663906,14.158311 19.0999144,14.158311 C18.2529472,14.158311 17.5663446,14.8435237 17.5663446,15.6887764 C17.5663446,16.5340291 18.2529472,17.2192418 19.0999144,17.2192418 L19.1693954,17.2153658 C19.477995,20.5211705 19.3546283,24.2972538 18.4355354,25.1934433 L10.3494402,25.1934433 C9.89890704,17.381491 14.2530724,20.4066286 14.2530724,13.0514728 C14.5246378,12.7866747 14.7812396,12.524586 15.0351528,12.2985864 L15.0258823,12.0825234 C16.42608,9.22181453 18.2024688,7.7914601 20.3550488,7.7914601 Z" id="Hair-Front" fill="#D4C691"></path>
                    </g>
                    <g id="Group" transform="translate(31.556749, 47.736376) scale(-1, 1) rotate(27.000000) translate(-31.556749, -47.736376) translate(10.556749, 30.736376)">
                        <path d="M22.8526189,21.9066982 L33.6184708,26.1388135 C36.2331565,26.1474976 38.4901135,26.4252206 40.3893417,26.9719825 C40.8705332,27.2226557 41.5295927,27.8148306 39.8943411,28.1201323 C38.2590896,28.4254341 36.5529353,28.8205473 36.4792102,29.4296011 C36.4054852,30.0386548 37.5511348,30.4364161 37.3030766,31.2980021 C37.1377045,31.8723927 35.3980546,31.0093763 32.084127,28.708953 L22.1900476,27.3803011 L22.8526189,21.9066982 Z" id="Arm" fill="#BA8B72" transform="translate(31.563365, 26.688423) rotate(15.000000) translate(-31.563365, -26.688423) "></path>
                        <path d="M6.53683,4.0933915 C13.8908926,11.9638273 22.8534965,17.1060963 35.0732945,21.6738841 L32.3696269,27.1219646 C19.7670065,25.9079453 13.0289319,24.9435192 7.73565632,17.0641601 C6.40715145,15.0866007 4.02666526,8.28559033 2.60141606,4.75352185 L6.53683,4.0933915 Z" id="Coat-Back" fill="#191847" transform="translate(18.837355, 15.607678) rotate(15.000000) translate(-18.837355, -15.607678) "></path>
                    </g>
                    <g id="Bottom/Standing/Baggy-Pants" transform="translate(42.000000, 86.444906) scale(-1, 1) translate(-42.000000, -86.444906) translate(0.000000, 52.889813)">
                        <polygon id="Leg" fill="#D4A181" points="37.4419958 -1.42108547e-14 51.1562835 34.6079123 60.3545129 63.8659851 63.9866944 63.8659851 49.9246229 1.2760012e-13"></polygon>
                        <path d="M34.680405,-1.42108547e-14 C34.5343674,12.161458 32.4046036,28.5348873 32.0643391,29.2929707 C31.8374961,29.7983596 24.0065105,36.2252606 8.57138224,48.5736735 L11.0730711,51.2428081 C29.2850925,40.6555932 38.8124846,34.655949 39.6552473,33.2438755 C40.9193914,31.1257652 45.0350091,11.6346369 48.3392931,-1.42108547e-14 L34.680405,-1.42108547e-14 Z" id="Leg" fill="#D4A181"></path>
                        <g id="Accessories/Shoe/Flat-Sneaker" transform="translate(14.390021, 52.652807) rotate(50.000000) translate(-14.390021, -52.652807) translate(5.867775, 47.081081)" fill="#DFE0E2">
                            <path d="M0.782367346,6.90628458 C0.449285304,7.75836817 0.282744283,8.39317459 0.282744283,8.81070384 C0.282744283,9.30557657 0.367684682,10.0277189 0.537565479,10.977131 C1.12904915,10.977131 6.44481246,10.977131 16.4848554,10.977131 C16.8992689,9.64739076 16.6600454,8.92950681 15.7671848,8.82347912 C14.8743243,8.71745143 14.1326098,8.62171691 13.5420415,8.53627557 L6.09473399,5.3138772 C5.96827986,5.25916137 5.82141259,5.31731676 5.76669676,5.44377089 C5.76647477,5.44428393 5.76625451,5.44479771 5.76603597,5.44531224 L5.2769168,6.5968976 L5.2769168,6.5968976 C4.45036143,6.971206 3.77869937,7.1583602 3.26193063,7.1583602 C2.82899944,7.1583602 2.22598347,6.98337346 1.45288271,6.63339998 L1.45289483,6.6333732 C1.20183656,6.51972212 0.906181219,6.63111266 0.792530141,6.88217093 C0.78893233,6.89011859 0.785543566,6.89815924 0.782367346,6.90628458 Z" id="shoe"></path>
                        </g>
                        <g id="Accessories/Shoe/Flat-Sneaker" transform="translate(58.118919, 55.438669)" fill="#DFE0E2">
                            <path d="M0.782367346,6.90628458 C0.449285304,7.75836817 0.282744283,8.39317459 0.282744283,8.81070384 C0.282744283,9.30557657 0.367684682,10.0277189 0.537565479,10.977131 C1.12904915,10.977131 6.44481246,10.977131 16.4848554,10.977131 C16.8992689,9.64739076 16.6600454,8.92950681 15.7671848,8.82347912 C14.8743243,8.71745143 14.1326098,8.62171691 13.5420415,8.53627557 L6.09473399,5.3138772 C5.96827986,5.25916137 5.82141259,5.31731676 5.76669676,5.44377089 C5.76647477,5.44428393 5.76625451,5.44479771 5.76603597,5.44531224 L5.2769168,6.5968976 L5.2769168,6.5968976 C4.45036143,6.971206 3.77869937,7.1583602 3.26193063,7.1583602 C2.82899944,7.1583602 2.22598347,6.98337346 1.45288271,6.63339998 L1.45289483,6.6333732 C1.20183656,6.51972212 0.906181219,6.63111266 0.792530141,6.88217093 C0.78893233,6.89011859 0.785543566,6.89815924 0.782367346,6.90628458 Z" id="shoe"></path>
                        </g>
                        <polygon id="Pant" fill="#7197A1" points="46.6627859 60.8524057 63.9320583 58.9837709 51.1334719 2.84217094e-14 35.6660362 2.84217094e-14"></polygon>
                        <path d="M12.1434893,44.2674932 L23.4711019,57.6355899 C35.4022321,44.6434403 42.3581122,36.1660604 44.3387421,32.2034501 C46.319372,28.2408398 48.0998575,17.5063565 49.6801986,0 L32.2666586,0 C31.4033961,15.4013288 30.8214971,23.4603428 30.5209616,24.177042 C30.2204261,24.8937411 24.094602,31.5905582 12.1434893,44.2674932 Z" id="Pant" fill="#A4BCC2"></path>
                    </g>
                    <g id="Body/Pointing-Up" transform="translate(41.626113, 49.397089) scale(-1, 1) rotate(8.000000) translate(-41.626113, -49.397089) translate(5.732938, 23.201663)">
                        <path d="M53.6070686,7.88448516 L64.2453426,4.74380614 C66.2299214,3.22446526 68.1018345,2.11359454 69.861082,1.41119396 C70.3727328,1.31648257 71.2197945,1.37148865 70.1612848,2.55237069 C69.1027752,3.73325272 68.0433842,5.02218072 68.3456065,5.51732964 C68.6478288,6.01247857 69.748981,5.63921565 70.0676754,6.42356149 C70.2801384,6.94645871 68.4557889,7.32096865 64.594627,7.54709131 L56.3231586,12.3344185 L53.6070686,7.88448516 Z" id="Skin" fill="#D4A181" transform="translate(62.137787, 6.857261) rotate(15.000000) translate(-62.137787, -6.857261) "></path>
                        <path d="M25.2598753,31.46636 L46.8711019,31.46636 C41.9757972,16.7835439 39.4750897,6.70617179 39.3689794,1.23424354 C39.3635698,0.955279347 38.8396904,0.463705042 38.6079147,0.528081072 C36.912964,0.998856048 35.0992329,0.822829024 33.1667214,0 C28.043369,8.10352805 26.2716248,18.0806118 25.2598753,31.46636 Z" id="Shirt" fill="#F5F5F6"></path>
                        <path d="M35.006472,-6.19948537e-13 C35.0095164,0.00901476017 35.0125599,0.0180295046 35.0156024,0.0270442312 L34.9124038,-6.49702514e-13 C40.8529182,1.55353826 49.5827548,5.44966296 62.0674613,4.84940602 L61.6928709,10.5725738 C53.5786819,13.1265202 45.6131127,14.8547397 38.9608219,13.9944567 C41.940191,27.4813816 41.5207479,38.258116 34.3555276,38.258116 L34.3555276,38.258116 L22.8324368,38.258116 C21.002304,26.1623316 25.8122512,9.39122213 30.2714219,0.932009923 C30.4417042,0.608978089 30.8042523,-6.19948537e-13 31.6582018,-6.19948537e-13 L31.6582018,-6.19948537e-13 Z" id="Coat-Front" fill="#003057"></path>
                    </g>
                </g>
            </g>
        </g>
    </g>
</svg>