<?xml version="1.0" encoding="UTF-8"?>
<svg width="145px" height="120px" viewBox="0 0 145 120" version="1.1" xmlns="http://www.w3.org/2000/svg" xmlns:xlink="http://www.w3.org/1999/xlink">
    <!-- Generator: Sketch 59.1 (86144) - https://sketch.com -->
    <title>Large/Apply@1.5x</title>
    <desc>Created with Sketch.</desc>
    <g id="Style-Sheet" stroke="none" stroke-width="1" fill="none" fill-rule="evenodd">
        <g id="Styles:-Icons-&amp;-Illustrations" transform="translate(-387.000000, -494.000000)">
            <g id="Large/Apply" transform="translate(386.000000, 493.000000)">
                <g id="Mobile3" transform="translate(36.042753, 48.492462) rotate(-20.000000) translate(-36.042753, -48.492462) translate(13.542753, 5.992462)">
                    <rect id="Container" fill="#F5F5F6" x="0" y="0" width="45" height="84.75" rx="2.25"></rect>
                    <circle id="Touch" fill="#FFFFFF" cx="22.3584906" cy="75.2086093" r="4.21875"></circle>
                    <g id="Camera" transform="translate(18.139741, 4.488825)" fill="#FFFFFF">
                        <circle id="Lens" cx="0.5625" cy="0.5625" r="1"></circle>
                        <rect id="Sensor" x="2.53125" y="0" width="5.90625" height="1.125" rx="0.5625"></rect>
                    </g>
                    <g id="Rows" transform="translate(3.937500, 7.875000)">
                        <g id="Row">
                            <rect id="Background" fill="#FFFFFF" x="0" y="0" width="37.125" height="15.1505474" rx="1.125"></rect>
                            <g id="Text" transform="translate(10.968750, 4.545164)" fill="#DFE0E2">
                                <rect id="Name" x="0" y="0" width="20.8125" height="2.27258212" rx="0.84375"></rect>
                                <rect id="Name" x="0" y="3.78763686" width="13.9700342" height="2.27258212" rx="0.84375"></rect>
                            </g>
                            <circle id="Avatar" fill="#CACCCE" cx="5.90625" cy="7.57527372" r="3.375"></circle>
                        </g>
                        <g id="Row" transform="translate(0.000000, 17.395073)">
                            <rect id="Background" fill="#FFFFFF" x="0" y="0" width="37.125" height="11.7837591" rx="1.125"></rect>
                            <g id="Text" transform="translate(10.968750, 3.535128)" fill="#DFE0E2">
                                <rect id="Name" x="0" y="0" width="20.8125" height="1.76756387" rx="0.84375"></rect>
                                <rect id="Name" x="0" y="2.94593978" width="13.9700342" height="1.76756387" rx="0.84375"></rect>
                            </g>
                            <circle id="Avatar" fill="#CACCCE" cx="5.90625" cy="5.89187956" r="3.375"></circle>
                        </g>
                        <g id="Row" transform="translate(0.000000, 31.423358)">
                            <rect id="Background" fill="#FFFFFF" x="0" y="0" width="37.125" height="11.7837591" rx="1.125"></rect>
                            <g id="Text" transform="translate(10.968750, 3.535128)" fill="#DFE0E2">
                                <rect id="Name" x="0" y="0" width="20.8125" height="1.76756387" rx="0.84375"></rect>
                                <rect id="Name" x="0" y="2.94593978" width="13.9700342" height="1.76756387" rx="0.84375"></rect>
                            </g>
                            <circle id="Avatar" fill="#CACCCE" cx="5.90625" cy="5.89187956" r="3.375"></circle>
                        </g>
                        <g id="Row" transform="translate(0.000000, 45.451642)">
                            <rect id="Background" stroke="#64C887" stroke-width="0.5" fill="#FFFFFF" x="0.25" y="0.25" width="36.625" height="11.2837591" rx="1.125"></rect>
                            <g id="Text" transform="translate(10.968750, 3.535128)" fill="#DFE0E2">
                                <rect id="Name" x="0" y="0" width="20.8125" height="1.76756387" rx="0.84375"></rect>
                                <rect id="Name" x="0" y="2.94593978" width="13.9700342" height="1.76756387" rx="0.84375"></rect>
                            </g>
                            <circle id="Avatar" fill="#64C887" cx="5.90625" cy="5.89187956" r="3.375"></circle>
                        </g>
                    </g>
                </g>
                <g id="Humaaan" transform="translate(51.750000, 0.000000)">
                    <g id="Head/Front/Short-2" transform="translate(33.308281, 19.410767) scale(-1, 1) rotate(12.000000) translate(-33.308281, -19.410767) translate(13.668529, 4.482537)">
                        <g id="Head" stroke-width="1" transform="translate(15.502392, 8.899522)" fill="#B28B67">
                            <path d="M10.9502415,2.6221817 C12.6138236,5.72298221 12.4161468,13.5884199 10.2661152,14.1426194 C9.40861835,14.3636508 7.58181899,13.8221526 5.72263574,12.7014509 L6.88995215,20.9569378 L0,20.9569378 L2.37161669,9.90108682 C1.04895183,8.34840582 0.153783119,6.44562582 0.303380766,4.31352743 C0.734448867,-1.83014945 9.28665952,-0.478618811 10.9502415,2.6221817 Z"></path>
                        </g>
                        <path d="M17.3449201,20.1839771 C16.4801633,16.3367824 14.0166123,13.7142788 14.3928556,11.9947473 C14.6436845,10.848393 15.3122187,10.1355155 16.3984582,9.85611476 C16.9602509,7.58339737 18.7721479,6.61672209 21.8341491,6.9560889 C26.4271508,7.46513912 29.2304634,9.37256231 28.0198513,13.5697257 C26.907014,13.5697257 25.5635816,13.1672689 23.7058938,13.856807 C23.1164569,14.0755947 22.6948744,14.7540745 22.4411462,15.8922464 L21.6016645,15.8922464 C20.786912,14.5415475 19.9835609,14.0452026 19.1916111,14.4032115 C18.3996613,14.7612204 18.2196382,15.6308255 18.6515419,17.0120267 L18.2380123,20.1839771 L17.3449201,20.1839771 Z" id="Hair" fill="#191847"></path>
                    </g>
                    <g id="Bottom/Standing/Jogging" transform="translate(49.677019, 86.443780) scale(-1, 1) translate(-49.677019, -86.443780) translate(6.354037, 52.137560)">
                        <polygon id="Leg" fill="#997659" points="37.7545343 0 59.3345653 35.6632275 75.5133798 65.8134803 78.9981529 65.8134803 51.8903221 1.46135282e-13"></polygon>
                        <g id="Accessories/Shoe/Flat-Sneaker" transform="translate(72.604874, 57.129187)" fill="#E4E4E4">
                            <path d="M0.768843186,7.29241439 C0.447668622,8.14978101 0.28708134,8.79128921 0.28708134,9.21693899 C0.28708134,9.73462881 0.373324652,10.490067 0.545811277,11.4832536 C1.1463678,11.4832536 6.5436704,11.4832536 16.7377191,11.4832536 C17.1584894,10.092203 16.9155964,9.34121961 16.0090401,9.2303033 C15.1024837,9.11938699 14.349392,9.01923844 13.7497649,8.92985765 L6.22392133,5.57479908 C6.07910914,5.51024108 5.90938106,5.57529996 5.84482306,5.72011216 C5.84371865,5.72258949 5.84264941,5.72508236 5.84161565,5.72759 L5.35786022,6.90106078 L5.35786022,6.90106078 C4.51862619,7.29262741 3.83666141,7.48841073 3.31196588,7.48841073 C2.88565361,7.48841073 2.2969091,7.31623304 1.54573235,6.97187765 L1.54570954,6.9719274 C1.25748099,6.83979731 0.916712976,6.96634011 0.784582882,7.25456866 C0.778887515,7.26699253 0.773637605,7.27961582 0.768843186,7.29241439 Z" id="shoe"></path>
                        </g>
                        <path d="M71.020071,60.9855184 L77.7403945,58.975949 C74.7960376,50.2750836 71.1873102,40.7001002 66.9142123,30.2509989 C62.6411144,19.8018976 58.0519661,9.7182313 53.1467676,2.84217094e-14 L34.1661323,2.84217094e-14 C39.6196583,12.2931164 45.4011272,23.4629906 51.5105389,33.5096227 C57.6199507,43.5562548 64.123128,52.7148867 71.020071,60.9855184 Z" id="Pant" fill="#FA7D00"></path>
                        <path d="M36.3363079,2.84217094e-14 C34.2995583,12.532303 30.371226,28.5437709 30.0004973,29.0378895 C29.7533449,29.3673019 20.8557939,32.3145069 3.30784446,37.8795044 L4.06059751,40.9171114 C24.9864861,37.9325673 36.0126447,35.6170352 37.1390735,33.9705151 C38.8287167,31.5007349 47.265333,11.9894173 50.5329921,2.84217094e-14 L36.3363079,2.84217094e-14 Z" id="Leg" fill="#B28B67"></path>
                        <path d="M9.47624517,35.2537255 L10.8021377,40.1460112 C26.4534831,41.5029533 36.0434081,40.5224774 39.5719128,37.2045836 C43.1004174,33.8866899 47.1218712,21.485162 51.636274,-1.13686838e-13 L33.5371048,-1.13686838e-13 C30.6768854,17.5934567 29.0778367,26.759462 28.7399585,27.4980158 C28.4020803,28.2365696 21.9808425,30.8218062 9.47624517,35.2537255 Z" id="Pant" fill="#FB9733"></path>
                        <g id="Accessories/Shoe/Flat-Sneaker" transform="translate(7.115278, 44.210526) rotate(80.000000) translate(-7.115278, -44.210526) translate(-1.742517, 38.468900)" fill="#E4E4E4">
                            <path d="M0.768843186,7.29241439 C0.447668622,8.14978101 0.28708134,8.79128921 0.28708134,9.21693899 C0.28708134,9.73462881 0.373324652,10.490067 0.545811277,11.4832536 C1.1463678,11.4832536 6.5436704,11.4832536 16.7377191,11.4832536 C17.1584894,10.092203 16.9155964,9.34121961 16.0090401,9.2303033 C15.1024837,9.11938699 14.349392,9.01923844 13.7497649,8.92985765 L6.22392133,5.57479908 C6.07910914,5.51024108 5.90938106,5.57529996 5.84482306,5.72011216 C5.84371865,5.72258949 5.84264941,5.72508236 5.84161565,5.72759 L5.35786022,6.90106078 L5.35786022,6.90106078 C4.51862619,7.29262741 3.83666141,7.48841073 3.31196588,7.48841073 C2.88565361,7.48841073 2.2969091,7.31623304 1.54573235,6.97187765 L1.54570954,6.9719274 C1.25748099,6.83979731 0.916712976,6.96634011 0.784582882,7.25456866 C0.778887515,7.26699253 0.773637605,7.27961582 0.768843186,7.29241439 Z" id="shoe"></path>
                        </g>
                    </g>
                    <g id="Body/Long-Sleeve" transform="translate(44.191087, 52.470823) scale(-1, 1) rotate(21.000000) translate(-44.191087, -52.470823) translate(7.222143, 25.628718)">
                        <path d="M19.7801584,21.3731149 L26.1526051,21.3967071 C19.1650443,36.9088047 15.5216217,45.0306931 15.2223373,45.7623723 C14.5489475,47.4086506 15.973931,49.9159038 16.5833105,51.263283 C14.5985817,52.1393886 14.8100567,48.8948121 12.3063748,50.0438734 C10.02113,51.0926832 8.28275004,52.9930564 5.64247993,51.3859439 C5.31787424,51.1883589 4.96215928,50.4444156 5.82161159,49.8630633 C7.96282071,48.4147025 11.0484328,45.8798103 11.4653476,45.0454309 C12.0338854,43.9076055 14.8054889,36.0168335 19.7801584,21.3731149 L19.7801584,21.3731149 Z M73.8282495,15.8799608 C72.5407914,16.9387579 71.2344836,18.1100086 71.4638696,18.6750701 C71.6932556,19.2401316 72.8905754,19.0298909 73.088924,19.8990036 C73.2211563,20.478412 71.2779792,20.5725601 67.2593926,20.1814479 L57.9361867,23.8277512 L55.8746805,18.7495091 L67.3647486,17.2033966 C69.6632283,15.9422085 71.7777183,15.0884063 73.7082183,14.6419898 L73.8243862,14.6419699 C74.3604508,14.6573237 75.0269174,14.8941842 73.8282495,15.8799608 Z" id="Skin" fill="#997659"></path>
                        <path d="M35.9507531,2.79346213 L40.9497622,2.68525091 C43.1297031,13.5032776 50.4011738,19.8206718 65.1254149,16.1784062 L68.339648,30.0740096 C54.5422098,33.0736485 41.8231907,28.6335082 38.0099529,13.9324886 C37.0228261,10.1268591 36.15854,6.15210029 35.9507531,2.79346213 Z" id="Clothes-Back" fill="#838587" transform="translate(52.145201, 16.822223) rotate(5.000000) translate(-52.145201, -16.822223) "></path>
                        <path d="M34.7695199,0 L34.7734679,0.005 L42.3331037,1.71251959 C42.3331037,14.2773029 46.3076075,22.3866635 48.4667981,31.5772411 L48.5993315,32.15311 L28.1828427,32.1532541 C27.8952484,35.4118399 27.7186386,38.7610742 27.6266073,42.2009569 L27.6266073,42.2009569 L12.3394679,42.2009569 C15.8036195,24.0183627 23.1152713,9.95137702 34.2744234,0 L34.2744234,0 L34.7695199,0 Z" id="Clothes" fill="#CACCCE"></path>
                        <path d="M31.4038698,13.8567708 C30.8779432,21.8482835 31.1874408,27.9470633 32.3323626,32.15311 L32.3323626,32.15311 L28.1829309,32.1522544 C28.7322824,25.9283542 29.6865308,20.0351526 31.229672,14.4726495 Z" id="Shade" fill-opacity="0.1" fill="#000000"></path>
                    </g>
                </g>
            </g>
        </g>
    </g>
</svg>